<svg width="46" height="46" viewBox="0 0 46 46" fill="none" xmlns="http://www.w3.org/2000/svg">
<path d="M3 3H43V43H3V3Z" fill="#531111"/>
<path d="M4.18182 3.13636C3.60443 3.13636 3.13636 3.60443 3.13636 4.18182V41.8182C3.13636 42.3956 3.60443 42.8636 4.18182 42.8636H41.8182C42.3956 42.8636 42.8636 42.3956 42.8636 41.8182V4.18182C42.8636 3.60443 42.3956 3.13636 41.8182 3.13636H4.18182ZM41.8182 0C44.1277 0 46 1.87226 46 4.18182V41.8182C46 44.1277 44.1277 46 41.8182 46H4.18182C1.87226 46 0 44.1277 0 41.8182V4.18182C0 1.87226 1.87226 0 4.18182 0L41.8182 0Z" fill="black"/>
<path d="M22.7251 20.5038L27.7774 15.4588C28.39 14.8467 29.383 14.8471 29.9951 15.4598C30.6072 16.0725 30.6068 17.0654 29.9941 17.6776L24.9446 22.721L29.9941 27.765C30.6068 28.3771 30.6072 29.37 29.9951 29.9827L29.8008 30.1482C29.1882 30.5894 28.3288 30.5347 27.7774 29.9837L22.7251 24.9359L17.6765 29.9837C17.0638 30.5959 16.0709 30.5954 15.4588 29.9827C14.8467 29.37 14.8471 28.3771 15.4598 27.765L20.5079 22.721L15.4598 17.6776C14.8471 17.0654 14.8467 16.0725 15.4588 15.4598L15.6531 15.2944C16.2657 14.8532 17.1251 14.9079 17.6765 15.4588L22.7251 20.5038Z" fill="black"/>
</svg>
