<svg width="46" height="46" viewBox="0 0 46 46" fill="none" xmlns="http://www.w3.org/2000/svg">
<path d="M12.2128 9.15959C11.8634 9.15959 11.5802 9.44284 11.5802 9.79224V32.5675C11.5802 32.9169 11.8634 33.2001 12.2128 33.2001H34.9881C35.3375 33.2001 35.6207 32.9169 35.6207 32.5675V9.79224C35.6207 9.44284 35.3375 9.15959 34.9881 9.15959H12.2128ZM34.9881 7.26166C36.3857 7.26166 37.5186 8.39464 37.5186 9.79224V32.5675C37.5186 33.9651 36.3857 35.098 34.9881 35.098H12.2128C10.8152 35.098 9.68225 33.9651 9.68225 32.5675V9.79224C9.68225 8.39464 10.8152 7.26166 12.2128 7.26166L34.9881 7.26166Z" fill="white"/>
<path d="M9.7923 12.7905C9.4429 12.7905 9.15965 13.0737 9.15965 13.4231V36.1983C9.15965 36.5477 9.4429 36.831 9.7923 36.831H32.5675C32.9169 36.831 33.2002 36.5477 33.2002 36.1983V13.4231C33.2002 13.0737 32.9169 12.7905 32.5675 12.7905H9.7923ZM32.5675 10.8925C33.9651 10.8925 35.0981 12.0255 35.0981 13.4231V36.1983C35.0981 37.5959 33.9651 38.7289 32.5675 38.7289H9.7923C8.3947 38.7289 7.26172 37.5959 7.26172 36.1983V13.4231C7.26172 12.0255 8.3947 10.8925 9.7923 10.8925H32.5675Z" fill="white"/>
<path d="M11.8828 14.8809C11.5789 14.8809 13.3131 16.6553 13.3131 16.9439L14.5234 30.257C14.5234 30.5456 13.6144 31.4672 13.9182 31.4672L26.6261 28.4415C26.93 28.4415 30.257 31.1507 30.257 30.8621L32.2374 15.4035C32.2374 15.1149 31.9911 14.8809 31.6873 14.8809H11.8828ZM31.6873 13.313C32.9026 13.313 33.2827 14.249 33.2827 15.4035V34.2178C33.2827 35.3724 32.9026 36.3083 31.6873 36.3083H11.8828C10.6675 36.3083 9.68225 35.3724 9.68225 34.2178V12.8152H11.611L31.6873 13.313Z" fill="#0A3241"/>
<path d="M4.18182 3.13636C3.60443 3.13636 3.13636 3.60443 3.13636 4.18182V41.8182C3.13636 42.3956 3.60443 42.8636 4.18182 42.8636H41.8182C42.3956 42.8636 42.8636 42.3956 42.8636 41.8182V4.18182C42.8636 3.60443 42.3956 3.13636 41.8182 3.13636H4.18182ZM41.8182 0C44.1277 0 46 1.87226 46 4.18182V41.8182C46 44.1277 44.1277 46 41.8182 46H4.18182C1.87226 46 0 44.1277 0 41.8182V4.18182C0 1.87226 1.87226 0 4.18182 0L41.8182 0Z" fill="white" fill-opacity="0.06"/>
</svg>
